<svg xmlns="http://www.w3.org/2000/svg" viewBox="0 0 512 512" fill="#0F172A">
  <rect width="512" height="512" rx="128" fill="#0F172A"/>
  <g fill="#FFFFFF" transform="translate(128 128)">
    <!-- Tool/wrench icon -->
    <path d="M192 32c0-17.7-14.3-32-32-32s-32 14.3-32 32V64H64C28.7 64 0 92.7 0 128v32c0 35.3 28.7 64 64 64h64v160c0 17.7 14.3 32 32 32s32-14.3 32-32V224h64c35.3 0 64-28.7 64-64V128c0-35.3-28.7-64-64-64H192V32z"/>
    <!-- Small gear icon -->
    <circle cx="224" cy="96" r="16" fill="#0F172A"/>
    <circle cx="224" cy="96" r="8" fill="#FFFFFF"/>
  </g>
</svg>